<svg xmlns="http://www.w3.org/2000/svg" viewBox="0 0 512 512" width="512" height="512">
  <rect width="512" height="512" fill="transparent"/>
  <circle cx="256" cy="256" r="200" fill="#3B99FC"/>
  <path d="M169.4,198.1c47.9-46.7,125.3-46.7,173.2,0l5.8,5.6c2.4,2.3,2.4,6.1,0,8.4l-19.7,19.3c-1.2,1.2-3.1,1.2-4.3,0l-7.9-7.7
    c-33.4-32.6-87.6-32.6-121,0l-8.5,8.3c-1.2,1.2-3.1,1.2-4.3,0l-19.7-19.3c-2.4-2.3-2.4-6.1,0-8.4L169.4,198.1z M397.6,226.7
    l17.6,17.2c2.4,2.3,2.4,6.1,0,8.4l-79.2,77.4c-2.4,2.3-6.2,2.3-8.6,0l-56.2-54.9c-0.6-0.6-1.6-0.6-2.2,0l-56.2,54.9
    c-2.4,2.3-6.2,2.3-8.6,0l-79.3-77.4c-2.4-2.3-2.4-6.1,0-8.4l17.6-17.2c2.4-2.3,6.2-2.3,8.6,0l56.2,54.9c0.6,0.6,1.6,0.6,2.2,0
    l56.2-54.9c2.4-2.3,6.2-2.3,8.6,0l56.2,54.9c0.6,0.6,1.6,0.6,2.2,0l56.2-54.9C391.4,224.4,395.3,224.4,397.6,226.7z" fill="white"/>
</svg>