<?xml version="1.0" encoding="UTF-8"?>
<svg width="42px" height="42px" viewBox="0 0 42 42" version="1.1" xmlns="http://www.w3.org/2000/svg" xmlns:xlink="http://www.w3.org/1999/xlink">
    <title>Base</title>
    <g id="Page-1" stroke="none" stroke-width="1" fill="none" fill-rule="evenodd">
        <g id="base" fill="#0052FF" fill-rule="nonzero">
            <path d="M21,0 C32.598,0 42,9.402 42,21 C42,32.598 32.598,42 21,42 C9.402,42 0,32.598 0,21 C0,9.402 9.402,0 21,0 Z M21,3.5 C11.34,3.5 3.5,11.34 3.5,21 C3.5,30.66 11.34,38.5 21,38.5 C30.66,38.5 38.5,30.66 38.5,21 C38.5,11.34 30.66,3.5 21,3.5 Z M21,16.8 C23.3196,16.8 25.2,18.6804 25.2,21 C25.2,23.3196 23.3196,25.2 21,25.2 C18.6804,25.2 16.8,23.3196 16.8,21 C16.8,18.6804 18.6804,16.8 21,16.8 Z" id="Shape"></path>
        </g>
    </g>
</svg>
