<?xml version="1.0" encoding="UTF-8"?>
<svg width="40px" height="40px" viewBox="0 0 40 40" version="1.1" xmlns="http://www.w3.org/2000/svg" xmlns:xlink="http://www.w3.org/1999/xlink">
    <title>Coinbase</title>
    <g id="Page-1" stroke="none" stroke-width="1" fill="none" fill-rule="evenodd">
        <g id="coinbase" fill-rule="nonzero">
            <circle id="Oval" fill="#0052FF" cx="20" cy="20" r="20"></circle>
            <path d="M20,28 C24.4182,28 28,24.4182 28,20 C28,15.5817 24.4182,12 20,12 C15.5817,12 12,15.5817 12,20 C12,24.4182 15.5817,28 20,28 Z M16.4572,17.9429 L22.0572,17.9429 C22.2343,17.9429 22.3772,18.0858 22.3772,18.2629 L22.3772,21.7372 C22.3772,21.9143 22.2343,22.0572 22.0572,22.0572 L16.4572,22.0572 C16.28,22.0572 16.1372,21.9143 16.1372,21.7372 L16.1372,18.2629 C16.1372,18.0858 16.28,17.9429 16.4572,17.9429 Z" id="Shape" fill="#FFFFFF"></path>
        </g>
    </g>
</svg>
