<?xml version="1.0" encoding="UTF-8"?>
<svg width="40px" height="38px" viewBox="0 0 40 38" version="1.1" xmlns="http://www.w3.org/2000/svg" xmlns:xlink="http://www.w3.org/1999/xlink">
    <title>Metamask</title>
    <g id="Page-1" stroke="none" stroke-width="1" fill="none" fill-rule="evenodd">
        <g id="metamask" fill-rule="nonzero">
            <polygon id="Path" fill="#E17726" points="38.2319 0 22.3636 12.3753 25.1499 5.70131"></polygon>
            <polygon id="Path" fill="#E27625" points="1.75442 0 17.53 12.4769 14.8501 5.70131"></polygon>
            <polygon id="Path" fill="#E27625" points="32.6652 27.2251 28.5529 33.4285 37.3449 35.8128 39.8761 27.3584"></polygon>
            <polygon id="Path" fill="#E27625" points="0.141027 27.3584 2.65517 35.8128 11.4335 33.4285 7.33487 27.2251"></polygon>
            <polygon id="Path" fill="#E27625" points="10.9776 16.6931 8.58652 20.3279 17.2743 20.7284 16.9873 11.4062"></polygon>
            <polygon id="Path" fill="#E27625" points="29.0087 16.6931 22.9116 11.3047 22.7227 20.7284 31.3968 20.3279"></polygon>
            <polygon id="Path" fill="#E27625" points="11.4335 33.4285 16.733 30.8989 12.1694 27.4266"></polygon>
            <polygon id="Path" fill="#E27625" points="23.2536 30.8989 28.5529 33.4285 27.817 27.4266"></polygon>
            <polygon id="Path" fill="#D5BFB2" points="28.5529 33.4285 23.2536 30.899 23.6895 34.2784 23.635 35.6113"></polygon>
            <polygon id="Path" fill="#D5BFB2" points="11.4335 33.4285 16.3517 35.6113 16.3109 34.2784 16.733 30.899"></polygon>
            <polygon id="Path" fill="#233447" points="16.4407 25.18 12.0213 23.9318 15.1093 22.5355"></polygon>
            <polygon id="Path" fill="#233447" points="23.5456 25.18 24.877 22.5355 27.9787 23.9318"></polygon>
            <polygon id="Path" fill="#CC6228" points="11.4335 33.4285 12.1967 27.2251 7.33487 27.3584"></polygon>
            <polygon id="Path" fill="#CC6228" points="27.8033 27.2251 28.5529 33.4285 32.6652 27.3584"></polygon>
            <polygon id="Path" fill="#CC6228" points="31.3968 20.3279 22.7227 20.7284 23.5592 25.18 24.8907 22.5355 27.9923 23.9318"></polygon>
            <polygon id="Path" fill="#CC6228" points="12.0213 23.9318 15.1229 22.5355 16.4407 25.18 17.2879 20.7284 8.58652 20.3279"></polygon>
            <polygon id="Path" fill="#E27525" points="8.58652 20.3279 12.1694 27.4266 12.0213 23.9318"></polygon>
            <polygon id="Path" fill="#E27525" points="27.9923 23.9318 27.817 27.4266 31.3968 20.3279"></polygon>
            <polygon id="Path" fill="#E27525" points="17.2879 20.7284 16.4407 25.18 17.5188 30.3987 17.7349 23.4815"></polygon>
            <polygon id="Path" fill="#E27525" points="22.7227 20.7284 22.2688 23.4678 22.4711 30.3987 23.5592 25.18"></polygon>
            <polygon id="Path" fill="#F5841F" points="23.5592 25.18 22.4711 30.3987 23.2536 30.899 27.817 27.4266 27.9923 23.9318"></polygon>
            <polygon id="Path" fill="#F5841F" points="12.0213 23.9318 12.1694 27.4266 16.733 30.899 17.5188 30.3987 16.4407 25.18"></polygon>
            <polygon id="Path" fill="#C0AC9D" points="23.635 35.6113 23.6895 34.2784 23.281 33.9295 16.719 33.9295 16.3381 34.2784 16.3789 35.6113 11.4471 33.4285 13.0162 34.7206 16.6663 37.2 23.3158 37.2 26.9795 34.7206 28.5393 33.4285"></polygon>
            <polygon id="Path" fill="#161616" points="23.2536 30.8989 22.4711 30.3987 17.5322 30.3987 16.733 30.8989 16.3109 34.2784 16.692 33.9295 23.254 33.9295 23.6625 34.2784"></polygon>
            <polygon id="Path" fill="#763E1A" points="39.2518 12.93 40.6105 6.72748 38.232 0 23.2536 11.8773 29.0087 16.6931 37.0937 19.0023 38.8891 16.9185 38.1124 16.3666 39.362 15.2637 38.4186 14.5359 39.6681 13.5991"></polygon>
            <polygon id="Path" fill="#763E1A" points="0 6.72748 1.37235 12.93 0.295267 13.5991 1.54478 14.5359 0.614804 15.2637 1.86431 16.3666 1.08759 16.9185 2.86934 19.0023 10.9776 16.6931 16.7331 11.8773 1.75442 0"></polygon>
            <polygon id="Path" fill="#F5841F" points="37.0938 19.0023 29.0087 16.6931 31.3968 20.3279 27.817 27.4266 32.6652 27.3584 39.8761 27.3584"></polygon>
            <polygon id="Path" fill="#F5841F" points="10.9775 16.6931 2.86926 19.0023 0.140949 27.3584 7.33479 27.3584 12.1693 27.4266 8.58645 20.3279"></polygon>
            <polygon id="Path" fill="#F5841F" points="22.7226 20.7284 23.2536 11.8773 25.1636 5.70131 14.85 5.70131 16.733 11.8773 17.2878 20.7284 17.5187 23.4951 17.5322 30.3987 22.4711 30.3987 22.4847 23.4951"></polygon>
        </g>
    </g>
</svg>
