<?xml version="1.0" encoding="UTF-8"?>
<svg width="50px" height="50px" viewBox="0 0 50 50" version="1.1" xmlns="http://www.w3.org/2000/svg" xmlns:xlink="http://www.w3.org/1999/xlink">
    <title>Optimism</title>
    <g id="Page-1" stroke="none" stroke-width="1" fill="none" fill-rule="evenodd">
        <g id="optimism" fill-rule="nonzero">
            <circle id="Oval" fill="#FF0420" cx="25" cy="25" r="25"></circle>
            <path d="M16.381,32.5 C13.953,32.5 12,31.6 12,29.015 L12,20.464 C12,19.864 12.467,19.396 13.067,19.396 C13.667,19.396 14.135,19.864 14.135,20.464 L14.135,29.075 C14.135,30.113 15.052,30.673 16.381,30.673 C17.709,30.673 18.627,30.113 18.627,29.075 L18.627,20.464 C18.627,19.864 19.094,19.396 19.694,19.396 C20.294,19.396 20.762,19.864 20.762,20.464 L20.762,29.015 C20.762,31.6 18.809,32.5 16.381,32.5 Z M26.694,32.38 C26.094,32.38 25.626,31.912 25.626,31.312 L25.626,19.436 C25.626,18.836 26.094,18.368 26.694,18.368 C27.294,18.368 27.761,18.836 27.761,19.436 L27.761,31.312 C27.761,31.912 27.294,32.38 26.694,32.38 Z M38,32.38 C37.4,32.38 36.932,31.912 36.932,31.312 L36.932,23.229 L34.125,31.452 C33.92,31.992 33.4,32.38 32.792,32.38 L32.666,32.38 C32.059,32.38 31.539,31.992 31.333,31.452 L28.526,23.229 L28.526,31.312 C28.526,31.912 28.059,32.38 27.459,32.38 C26.859,32.38 26.392,31.912 26.392,31.312 L26.392,19.436 C26.392,18.538 27.112,17.819 28.01,17.819 L28.072,17.819 C28.717,17.819 29.287,18.227 29.509,18.833 L32.729,28.129 L35.949,18.833 C36.171,18.227 36.742,17.819 37.386,17.819 L37.448,17.819 C38.346,17.819 39.066,18.538 39.066,19.436 L39.066,31.312 C39.066,31.912 38.599,32.38 38,32.38 Z" id="Shape" fill="#FFFFFF"></path>
        </g>
    </g>
</svg>
