<?xml version="1.0" encoding="UTF-8"?>
<svg width="46px" height="40px" viewBox="0 0 46 40" version="1.1" xmlns="http://www.w3.org/2000/svg" xmlns:xlink="http://www.w3.org/1999/xlink">
    <title>Polygon</title>
    <g id="Page-1" stroke="none" stroke-width="1" fill="none" fill-rule="evenodd">
        <g id="polygon" transform="translate(0.000000, 0.000000)" fill-rule="nonzero">
            <path d="M36.9722,14.8856 L27.8322,9.90356 C26.6042,9.22556 24.8962,9.22556 23.6682,9.90356 L8.90821,18.0435 C7.67521,18.7215 7.67521,19.8775 8.90821,20.5555 L12.6622,22.6315 L9.49521,24.3956 C8.26821,25.0736 8.26821,26.2296 9.49521,26.9076 L18.6352,31.8896 C19.8622,32.5676 21.5702,32.5676 22.7972,31.8896 L36.9722,23.9856 C38.1992,23.3076 38.1992,22.1516 36.9722,21.4736 L33.2182,19.3976 L36.9722,17.3676 C38.1992,16.6896 38.1992,15.5336 36.9722,14.8856 Z" id="Path" fill="#8247E5"></path>
            <path d="M18.6353,7.30552 L25.3513,3.55152 C25.7863,3.31952 26.5713,3.31952 27.0133,3.55152 L33.6853,7.30552 C34.1353,7.53752 34.1353,7.91552 33.6853,8.14752 L27.0133,11.9015 C25.7863,12.5795 24.0783,12.5795 22.8513,11.9015 L16.1793,8.14752 C15.7373,7.91552 15.7373,7.53752 16.1793,7.30552 L18.6353,7.30552 Z" id="Path" fill="#8247E5"></path>
        </g>
    </g>
</svg>
