<?xml version="1.0" encoding="UTF-8"?>
<svg width="40px" height="40px" viewBox="0 0 40 40" version="1.1" xmlns="http://www.w3.org/2000/svg" xmlns:xlink="http://www.w3.org/1999/xlink">
    <title>WalletConnect</title>
    <g id="Page-1" stroke="none" stroke-width="1" fill="none" fill-rule="evenodd">
        <g id="walletconnect" fill-rule="nonzero">
            <circle id="Oval" fill="#3B99FC" cx="20" cy="20" r="20"></circle>
            <path d="M14.0425,16.392 C17.9995,12.436 24.3285,12.436 28.2855,16.392 L28.7995,16.906 C29.0105,17.117 29.0105,17.461 28.7995,17.672 L27.1815,19.29 C27.0755,19.396 26.9035,19.396 26.7975,19.29 L26.0865,18.579 C23.3985,15.892 18.9295,15.892 16.2415,18.579 L15.4755,19.345 C15.3695,19.451 15.1975,19.451 15.0915,19.345 L13.4735,17.726 C13.2625,17.515 13.2625,17.171 13.4735,16.96 L14.0425,16.392 Z M30.7275,18.834 L32.1555,20.262 C32.3665,20.473 32.3665,20.817 32.1555,21.028 L25.2415,27.94 C25.0305,28.151 24.6865,28.151 24.4755,27.94 L19.6555,23.122 C19.6025,23.069 19.5165,23.069 19.4635,23.122 L14.6435,27.94 C14.4325,28.151 14.0885,28.151 13.8775,27.94 L6.9635,21.028 C6.7525,20.817 6.7525,20.473 6.9635,20.262 L8.3915,18.834 C8.6025,18.623 8.9465,18.623 9.1575,18.834 L13.9775,23.652 C14.0305,23.705 14.1165,23.705 14.1695,23.652 L18.9895,18.834 C19.2005,18.623 19.5445,18.623 19.7555,18.834 L24.5755,23.652 C24.6285,23.705 24.7145,23.705 24.7675,23.652 L29.5875,18.834 C29.7985,18.623 30.1425,18.623 30.3535,18.834 L30.7275,18.834 Z" id="Shape" fill="#FFFFFF"></path>
        </g>
    </g>
</svg>
