<?xml version="1.0" encoding="UTF-8"?>
<svg width="100px" height="100px" viewBox="0 0 100 100" version="1.1" xmlns="http://www.w3.org/2000/svg" xmlns:xlink="http://www.w3.org/1999/xlink">
    <title>Wallet Connect Icon</title>
    <g id="Page-1" stroke="none" stroke-width="1" fill="none" fill-rule="evenodd">
        <g id="wallet-connect-icon" fill-rule="nonzero">
            <path d="M50,0 C77.6142,0 100,22.3858 100,50 C100,77.6142 77.6142,100 50,100 C22.3858,100 0,77.6142 0,50 C0,22.3858 22.3858,0 50,0 Z" id="Oval" fill="#222222"></path>
            <path d="M25.6186,40.529 C33.0866,33.061 45.5156,33.061 52.9836,40.529 L53.7936,41.339 C54.1386,41.684 54.1386,42.246 53.7936,42.591 L49.5946,46.79 C49.4226,46.962 49.1466,46.962 48.9746,46.79 L47.8606,45.676 C42.6626,40.478 35.9396,40.478 30.7416,45.676 L29.5296,46.888 C29.3576,47.06 29.0816,47.06 28.9096,46.888 L24.7106,42.689 C24.3656,42.344 24.3656,41.782 24.7106,41.437 L25.6186,40.529 Z M63.5596,50.47 L67.2696,54.18 C67.6146,54.525 67.6146,55.087 67.2696,55.432 L52.2026,70.499 C51.8576,70.844 51.2956,70.844 50.9506,70.499 L40.2906,59.839 C40.2046,59.753 40.0676,59.753 39.9816,59.839 L29.3216,70.499 C28.9766,70.844 28.4146,70.844 28.0696,70.499 L13.0026,55.432 C12.6576,55.087 12.6576,54.525 13.0026,54.18 L16.7126,50.47 C17.0576,50.125 17.6196,50.125 17.9646,50.47 L28.6246,61.13 C28.7106,61.216 28.8476,61.216 28.9336,61.13 L39.5936,50.47 C39.9386,50.125 40.5006,50.125 40.8456,50.47 L51.5056,61.13 C51.5916,61.216 51.7286,61.216 51.8146,61.13 L62.4746,50.47 C62.8196,50.125 63.3816,50.125 63.7266,50.47 L63.5596,50.47 Z" id="Shape" fill="#FFFFFF"></path>
        </g>
    </g>
</svg>
